<svg width="137" height="141" viewBox="0 0 137 141" fill="none" xmlns="http://www.w3.org/2000/svg">
<path d="M102.311 45.75H93.8914L91.5514 39.9C89.1468 33.8855 83.4078 30 76.9292 30H59.0698C52.5926 30 46.8523 33.8855 44.4462 39.9L42.1062 45.75H33.6884C32.5901 45.75 31.7843 46.7822 32.0515 47.8467L32.8953 51.2217C33.0823 51.9727 33.7573 52.5 34.5321 52.5H37.3545C35.4659 54.1495 34.2495 56.5472 34.2495 59.25V66C34.2495 68.2669 35.1157 70.313 36.4995 71.8964V79.5C36.4995 81.9848 38.5147 84 40.9995 84H45.4995C47.9844 84 49.9995 81.9848 49.9995 79.5V75H85.9996V79.5C85.9996 81.9848 88.0147 84 90.4996 84H94.9996C97.4844 84 99.4996 81.9848 99.4996 79.5V71.8964C100.883 70.3144 101.75 68.2683 101.75 66V59.25C101.75 56.5472 100.533 54.1495 98.646 52.5H101.468C102.243 52.5 102.918 51.9727 103.105 51.2217L103.949 47.8467C104.215 46.7822 103.409 45.75 102.311 45.75ZM52.8022 43.2427C53.8273 40.6805 56.3094 39 59.0698 39H76.9292C79.6897 39 82.1717 40.6805 83.1969 43.2427L85.9996 50.25H49.9995L52.8022 43.2427ZM45.4995 65.9719C42.7995 65.9719 40.9995 64.1775 40.9995 61.4859C40.9995 58.7944 42.7995 57 45.4995 57C48.1995 57 52.2495 61.0373 52.2495 63.7289C52.2495 66.4205 48.1995 65.9719 45.4995 65.9719ZM90.4996 65.9719C87.7996 65.9719 83.7496 66.4205 83.7496 63.7289C83.7496 61.0373 87.7996 57 90.4996 57C93.1996 57 94.9996 58.7944 94.9996 61.4859C94.9996 64.1775 93.1996 65.9719 90.4996 65.9719Z" fill="#433F56"/>
<path d="M111 35.5C111 29.3517 108.688 23.4282 104.524 18.9051C100.359 14.382 94.6465 11.5901 88.5192 11.0833L88.253 14.3016C93.5728 14.7415 98.5326 17.1655 102.148 21.0924C105.764 25.0193 107.771 30.1621 107.771 35.5H111Z" fill="#433F56"/>
<path d="M100 34.5C100 31.3631 98.8206 28.3409 96.6959 26.0332C94.5711 23.7255 91.6564 22.3011 88.5302 22.0425L88.3005 24.8201C90.7297 25.021 92.9945 26.1278 94.6455 27.921C96.2965 29.7142 97.213 32.0625 97.213 34.5H100Z" fill="#433F56"/>
<path d="M121.811 39.1571C122.317 34.2716 121.804 29.3342 120.304 24.6572C118.803 19.9803 116.349 15.6655 113.096 11.9858C109.842 8.30612 105.861 5.34157 101.403 3.27964C96.9451 1.21772 92.1078 0.103293 87.1971 0.00684493L87.1317 3.33709C91.5816 3.42448 95.965 4.43435 100.005 6.30281C104.044 8.17127 107.652 10.8577 110.6 14.1921C113.548 17.5265 115.772 21.4365 117.132 25.6746C118.491 29.9127 118.956 34.3868 118.498 38.8139L121.811 39.1571Z" fill="#433F56"/>
<path d="M12.296 131.448C7.424 131.448 4.843 128.519 4.843 123.85C4.843 119.181 7.424 116.281 12.296 116.281C17.023 116.281 18.792 119.094 19.372 121.762H23.113C22.185 116.02 17.603 113.294 12.296 113.294C6.67 113.294 1.16 116.339 1.16 123.85C1.16 131.361 6.67 134.435 12.296 134.435C17.603 134.435 22.185 131.709 23.113 125.967H19.372C18.792 128.635 17.023 131.448 12.296 131.448ZM33.2315 118.108C29.2295 118.108 26.2135 119.703 25.7495 122.951H29.0845C29.3455 121.646 30.4765 120.747 33.2315 120.747C36.4505 120.747 37.5525 121.82 37.5525 123.966V124.923C26.8805 124.227 25.1405 126.75 25.1405 129.94C25.1405 132.898 27.6055 134.435 31.3175 134.435C34.9425 134.435 36.7985 132.869 37.5525 131.999V134H41.1195V123.966C41.1195 119.529 37.4945 118.108 33.2315 118.108ZM37.5525 129.65C36.5955 131.042 34.7975 132.057 32.0715 132.057C30.0125 132.057 28.7945 131.274 28.7945 129.708C28.7945 127.301 31.1145 126.75 37.5525 127.069V129.65ZM54.9632 118.108C51.6282 118.108 49.4822 120.312 48.7862 121.443V118.543H45.1902V134H48.7862V126.141C48.7862 123.734 50.2652 121.472 54.1802 121.472C55.1662 121.472 55.9492 121.588 56.5582 121.762H56.6742V118.224C56.0652 118.137 55.6592 118.108 54.9632 118.108ZM58.1024 130.462C57.0004 130.462 56.1014 131.332 56.1014 132.434C56.1014 133.536 57.0004 134.406 58.1024 134.406C59.1754 134.406 60.0744 133.536 60.0744 132.434C60.0744 131.332 59.1754 130.462 58.1024 130.462ZM75.7285 113.7H63.5485V134H67.1155V127.127H75.1775C80.7745 127.127 83.0655 124.285 83.0655 120.399C83.0655 116.919 81.2385 113.7 75.7285 113.7ZM75.1775 124.14H67.1155V116.716H75.1195C78.1355 116.716 79.3825 118.108 79.3825 120.399C79.3825 122.516 78.3095 124.14 75.1775 124.14ZM92.9024 118.108C88.9004 118.108 85.8844 119.703 85.4204 122.951H88.7554C89.0164 121.646 90.1474 120.747 92.9024 120.747C96.1214 120.747 97.2234 121.82 97.2234 123.966V124.923C86.5514 124.227 84.8114 126.75 84.8114 129.94C84.8114 132.898 87.2764 134.435 90.9884 134.435C94.6134 134.435 96.4694 132.869 97.2234 131.999V134H100.79V123.966C100.79 119.529 97.1654 118.108 92.9024 118.108ZM97.2234 129.65C96.2664 131.042 94.4684 132.057 91.7424 132.057C89.6834 132.057 88.4654 131.274 88.4654 129.708C88.4654 127.301 90.7854 126.75 97.2234 127.069V129.65ZM114.634 118.108C111.299 118.108 109.153 120.312 108.457 121.443V118.543H104.861V134H108.457V126.141C108.457 123.734 109.936 121.472 113.851 121.472C114.837 121.472 115.62 121.588 116.229 121.762H116.345V118.224C115.736 118.137 115.33 118.108 114.634 118.108ZM131.428 134H135.662L128.702 124.662L135.285 118.543H130.819L122.844 126.054V113.7H119.248V134H122.844V130.114L126.179 126.982L131.428 134Z" fill="#433F56"/>
</svg>
